<mxfile host="app.diagrams.net" modified="2021-01-27T07:50:20.613Z" agent="5.0 (Macintosh; Intel Mac OS X 10_15_4) AppleWebKit/537.36 (KHTML, like Gecko) Chrome/88.0.4324.96 Safari/537.36" etag="cTN5tlGCWHACoFBXFBe5" version="14.2.7" type="github">
  <diagram id="C5RBs43oDa-KdzZeNtuy" name="Page-1">
    <mxGraphModel dx="1351" dy="796" grid="1" gridSize="10" guides="1" tooltips="1" connect="1" arrows="1" fold="1" page="1" pageScale="1" pageWidth="827" pageHeight="1169" math="0" shadow="0">
      <root>
        <mxCell id="WIyWlLk6GJQsqaUBKTNV-0" />
        <mxCell id="WIyWlLk6GJQsqaUBKTNV-1" parent="WIyWlLk6GJQsqaUBKTNV-0" />
        <mxCell id="CX_vNM0TrNXVAGzNfS_B-13" value="" style="edgeStyle=orthogonalEdgeStyle;rounded=1;orthogonalLoop=1;jettySize=auto;html=1;strokeWidth=3;exitX=0.446;exitY=0.933;exitDx=0;exitDy=0;exitPerimeter=0;" edge="1" parent="WIyWlLk6GJQsqaUBKTNV-1" source="CX_vNM0TrNXVAGzNfS_B-0" target="CX_vNM0TrNXVAGzNfS_B-9">
          <mxGeometry relative="1" as="geometry" />
        </mxCell>
        <mxCell id="CX_vNM0TrNXVAGzNfS_B-0" value="&lt;font style=&quot;font-size: 20px&quot;&gt;源代码&lt;/font&gt;" style="shape=document;whiteSpace=wrap;html=1;boundedLbl=1;fillColor=#dae8fc;strokeColor=#6c8ebf;size=0.25;" vertex="1" parent="WIyWlLk6GJQsqaUBKTNV-1">
          <mxGeometry x="150" y="50" width="130" height="60" as="geometry" />
        </mxCell>
        <mxCell id="CX_vNM0TrNXVAGzNfS_B-15" value="" style="edgeStyle=orthogonalEdgeStyle;rounded=1;orthogonalLoop=1;jettySize=auto;html=1;strokeWidth=3;" edge="1" parent="WIyWlLk6GJQsqaUBKTNV-1" source="CX_vNM0TrNXVAGzNfS_B-3" target="CX_vNM0TrNXVAGzNfS_B-14">
          <mxGeometry relative="1" as="geometry" />
        </mxCell>
        <mxCell id="CX_vNM0TrNXVAGzNfS_B-3" value="&lt;font style=&quot;font-size: 20px&quot;&gt;&lt;b&gt;AST&lt;/b&gt;&lt;/font&gt;" style="shape=parallelogram;perimeter=parallelogramPerimeter;whiteSpace=wrap;html=1;fixedSize=1;fillColor=#d5e8d4;strokeColor=#82b366;" vertex="1" parent="WIyWlLk6GJQsqaUBKTNV-1">
          <mxGeometry x="150" y="260" width="120" height="60" as="geometry" />
        </mxCell>
        <mxCell id="CX_vNM0TrNXVAGzNfS_B-10" value="" style="edgeStyle=orthogonalEdgeStyle;rounded=0;orthogonalLoop=1;jettySize=auto;html=1;strokeWidth=3;" edge="1" parent="WIyWlLk6GJQsqaUBKTNV-1" source="CX_vNM0TrNXVAGzNfS_B-9" target="CX_vNM0TrNXVAGzNfS_B-3">
          <mxGeometry relative="1" as="geometry" />
        </mxCell>
        <mxCell id="CX_vNM0TrNXVAGzNfS_B-9" value="&lt;font style=&quot;font-size: 20px&quot;&gt;Parsing&lt;/font&gt;" style="rounded=1;whiteSpace=wrap;html=1;fillColor=#f8cecc;strokeColor=#b85450;" vertex="1" parent="WIyWlLk6GJQsqaUBKTNV-1">
          <mxGeometry x="150" y="150" width="120" height="60" as="geometry" />
        </mxCell>
        <mxCell id="CX_vNM0TrNXVAGzNfS_B-17" value="" style="edgeStyle=orthogonalEdgeStyle;rounded=1;orthogonalLoop=1;jettySize=auto;html=1;strokeWidth=3;" edge="1" parent="WIyWlLk6GJQsqaUBKTNV-1" source="CX_vNM0TrNXVAGzNfS_B-14" target="CX_vNM0TrNXVAGzNfS_B-16">
          <mxGeometry relative="1" as="geometry" />
        </mxCell>
        <mxCell id="CX_vNM0TrNXVAGzNfS_B-14" value="&lt;font style=&quot;font-size: 20px&quot;&gt;Transformation&lt;/font&gt;" style="rounded=1;whiteSpace=wrap;html=1;fillColor=#f8cecc;strokeColor=#b85450;" vertex="1" parent="WIyWlLk6GJQsqaUBKTNV-1">
          <mxGeometry x="135" y="380" width="150" height="60" as="geometry" />
        </mxCell>
        <mxCell id="CX_vNM0TrNXVAGzNfS_B-19" value="" style="edgeStyle=orthogonalEdgeStyle;rounded=1;orthogonalLoop=1;jettySize=auto;html=1;strokeWidth=3;" edge="1" parent="WIyWlLk6GJQsqaUBKTNV-1" source="CX_vNM0TrNXVAGzNfS_B-16" target="CX_vNM0TrNXVAGzNfS_B-18">
          <mxGeometry relative="1" as="geometry" />
        </mxCell>
        <mxCell id="CX_vNM0TrNXVAGzNfS_B-16" value="&lt;font style=&quot;font-size: 20px&quot;&gt;转换代码&lt;br&gt;(中间代码)&lt;br&gt;&lt;/font&gt;" style="shape=parallelogram;perimeter=parallelogramPerimeter;whiteSpace=wrap;html=1;fixedSize=1;fillColor=#d5e8d4;strokeColor=#82b366;" vertex="1" parent="WIyWlLk6GJQsqaUBKTNV-1">
          <mxGeometry x="135" y="490" width="150" height="60" as="geometry" />
        </mxCell>
        <mxCell id="CX_vNM0TrNXVAGzNfS_B-21" value="" style="edgeStyle=orthogonalEdgeStyle;rounded=1;orthogonalLoop=1;jettySize=auto;html=1;strokeWidth=3;" edge="1" parent="WIyWlLk6GJQsqaUBKTNV-1" source="CX_vNM0TrNXVAGzNfS_B-18" target="CX_vNM0TrNXVAGzNfS_B-20">
          <mxGeometry relative="1" as="geometry" />
        </mxCell>
        <mxCell id="CX_vNM0TrNXVAGzNfS_B-18" value="&lt;font style=&quot;font-size: 20px&quot;&gt;Code Generation&lt;/font&gt;" style="rounded=1;whiteSpace=wrap;html=1;fillColor=#f8cecc;strokeColor=#b85450;" vertex="1" parent="WIyWlLk6GJQsqaUBKTNV-1">
          <mxGeometry x="135" y="620" width="150" height="60" as="geometry" />
        </mxCell>
        <mxCell id="CX_vNM0TrNXVAGzNfS_B-20" value="&lt;span style=&quot;font-size: 20px&quot;&gt;&lt;b&gt;目标代码&lt;/b&gt;&lt;/span&gt;" style="shape=document;whiteSpace=wrap;html=1;boundedLbl=1;fillColor=#dae8fc;strokeColor=#6c8ebf;size=0.25;" vertex="1" parent="WIyWlLk6GJQsqaUBKTNV-1">
          <mxGeometry x="145" y="750" width="130" height="60" as="geometry" />
        </mxCell>
      </root>
    </mxGraphModel>
  </diagram>
</mxfile>
